<?xml version="1.0" encoding="UTF-8"?>
<svg id="Layer_2" data-name="Layer 2" xmlns="http://www.w3.org/2000/svg" viewBox="0 0 813.54 167.64">
  <defs>
    <style>
      .cls-1 {
        fill: #0e3e1b;
      }

      .cls-2 {
        fill: #197a56;
      }
    </style>
  </defs>
  <g id="Layer_1-2" data-name="Layer 1">
    <g>
      <path class="cls-2" d="M276.18,148.47h-7.41v-3.51h18.97v3.51h-7.41v18.85h-4.15v-18.85Z"/>
      <path class="cls-2" d="M309.56,163.83v3.48h-16.77v-22.36h16.32v3.48h-12.17v5.81h10.8v3.42h-10.8v6.16h12.62Z"/>
      <path class="cls-2" d="M316.11,144.96h4.15v18.85h11.69v3.51h-15.84v-22.36Z"/>
      <path class="cls-2" d="M351.82,162.14h-11.18l-2.2,5.18h-4.28l10.06-22.36h4.09l10.09,22.36h-4.34l-2.24-5.18ZM350.44,158.88l-4.22-9.77-4.18,9.77h8.4Z"/>
      <path class="cls-2" d="M383.03,144.96v22.36h-3.42l-12.33-15.14v15.14h-4.12v-22.36h3.42l12.33,15.14v-15.14h4.12Z"/>
      <path class="cls-2" d="M406.22,155.88h3.93v8.91c-2.33,1.88-5.59,2.84-8.75,2.84-6.93,0-12.04-4.82-12.04-11.5s5.11-11.5,12.11-11.5c3.74,0,6.87,1.25,8.98,3.64l-2.62,2.56c-1.76-1.76-3.77-2.56-6.17-2.56-4.76,0-8.11,3.23-8.11,7.86s3.35,7.86,8.08,7.86c1.6,0,3.16-.32,4.6-1.15v-6.96Z"/>
      <path class="cls-2" d="M432.03,162.14h-11.18l-2.2,5.18h-4.28l10.06-22.36h4.09l10.09,22.36h-4.34l-2.24-5.18ZM430.65,158.88l-4.22-9.77-4.18,9.77h8.4Z"/>
      <path class="cls-2" d="M463.24,144.96v22.36h-3.42l-12.33-15.14v15.14h-4.12v-22.36h3.42l12.33,15.14v-15.14h4.12Z"/>
      <path class="cls-2" d="M485.66,162.14h-11.18l-2.2,5.18h-4.28l10.06-22.36h4.09l10.09,22.36h-4.34l-2.24-5.18ZM484.29,158.88l-4.22-9.77-4.19,9.77h8.4Z"/>
      <path class="cls-2" d="M507.73,144.96h9.77c7.25,0,12.2,4.47,12.2,11.18s-4.95,11.18-12.2,11.18h-9.77v-22.36ZM517.32,163.8c4.98,0,8.21-3.04,8.21-7.67s-3.23-7.67-8.21-7.67h-5.43v15.33h5.43Z"/>
      <path class="cls-2" d="M550.22,162.14h-11.18l-2.2,5.18h-4.28l10.06-22.36h4.09l10.09,22.36h-4.34l-2.24-5.18ZM548.84,158.88l-4.22-9.77-4.19,9.77h8.4Z"/>
      <path class="cls-2" d="M564.98,148.47h-7.41v-3.51h18.97v3.51h-7.41v18.85h-4.15v-18.85Z"/>
      <path class="cls-2" d="M594.97,162.14h-11.18l-2.2,5.18h-4.28l10.06-22.36h4.09l10.09,22.36h-4.34l-2.24-5.18ZM593.6,158.88l-4.22-9.77-4.19,9.77h8.4Z"/>
      <path class="cls-2" d="M633.81,163.83v3.48h-16.77v-22.36h16.32v3.48h-12.17v5.81h10.8v3.42h-10.8v6.16h12.62Z"/>
      <path class="cls-2" d="M654.19,167.32l-6.07-8.5-6,8.5h-4.73l8.31-11.4-7.86-10.96h4.7l5.72,7.95,5.65-7.95h4.5l-7.83,10.8,8.4,11.56h-4.79Z"/>
      <path class="cls-2" d="M661.76,156.14c0-6.68,5.11-11.5,11.98-11.5,3.64,0,6.77,1.31,8.85,3.74l-2.68,2.52c-1.63-1.76-3.64-2.62-5.97-2.62-4.63,0-7.99,3.26-7.99,7.86s3.35,7.86,7.99,7.86c2.33,0,4.34-.86,5.97-2.65l2.68,2.56c-2.08,2.43-5.21,3.74-8.88,3.74-6.84,0-11.95-4.82-11.95-11.5Z"/>
      <path class="cls-2" d="M708.37,144.96v22.36h-4.15v-9.58h-11.56v9.58h-4.15v-22.36h4.15v9.23h11.56v-9.23h4.15Z"/>
      <path class="cls-2" d="M730.79,162.14h-11.18l-2.2,5.18h-4.28l10.06-22.36h4.09l10.09,22.36h-4.34l-2.24-5.18ZM729.42,158.88l-4.22-9.77-4.19,9.77h8.4Z"/>
      <path class="cls-2" d="M762,144.96v22.36h-3.42l-12.33-15.14v15.14h-4.12v-22.36h3.42l12.33,15.14v-15.14h4.12Z"/>
      <path class="cls-2" d="M785.19,155.88h3.93v8.91c-2.33,1.88-5.59,2.84-8.75,2.84-6.93,0-12.04-4.82-12.04-11.5s5.11-11.5,12.11-11.5c3.74,0,6.87,1.25,8.98,3.64l-2.62,2.56c-1.76-1.76-3.77-2.56-6.16-2.56-4.76,0-8.11,3.23-8.11,7.86s3.35,7.86,8.08,7.86c1.6,0,3.16-.32,4.6-1.15v-6.96Z"/>
      <path class="cls-2" d="M813.27,163.83v3.48h-16.77v-22.36h16.32v3.48h-12.17v5.81h10.8v3.42h-10.8v6.16h12.62Z"/>
      <path class="cls-1" d="M213.87,54.68c1.78-5.92-.48-12.19-5.63-15.61-2.09-1.39-4.51-2.2-6.99-2.32-1.16-.06-2.33.03-3.48.26-3.66.73-6.8,2.85-8.86,5.94-4.26,6.39-2.51,15.06,3.88,19.33,1.06.71,2.2,1.26,3.39,1.66s2.42.63,3.66.69c1.14.06,2.28-.02,3.41-.25,2.23-.45,4.35-1.46,6.13-2.93l.86-.71,32.46,21.6v26.43l-29.15-19.4.33-1.07c1.78-5.92-.48-12.19-5.63-15.61-2.09-1.39-4.51-2.2-6.99-2.32-1.16-.06-2.33.03-3.48.26-3.66.73-6.8,2.85-8.86,5.94-4.26,6.39-2.51,15.06,3.88,19.33,1.06.71,2.2,1.26,3.39,1.66s2.42.63,3.66.69c1.14.06,2.28-.02,3.41-.25,2.23-.45,4.35-1.46,6.13-2.93l.86-.71,32.46,21.6v5.64c0,2.77-1.48,5.34-3.89,6.73l-65.72,37.94c-2.4,1.39-5.36,1.39-7.77,0l-43.97-25.39-42.97-24.77s-.06-.04-.09-.06l-5.14-2.96v-57.38l95.71,55.24v-51.05c0-.23,0-.46-.02-.7-.17-2.83-1.48-5.45-3.61-7.24-.14-.11-.29-.23-.44-.35-.18-.15-.36-.28-.56-.4-.19-.13-.39-.26-.59-.37l-42.29-24.43.3-.17L165.32,1.04c2.41-1.39,5.37-1.39,7.77,0l65.72,37.95c2.41,1.39,3.89,3.95,3.89,6.73v29.43l-29.15-19.4.33-1.07ZM205.27,77.16c-1.29-.86-2.78-1.35-4.32-1.42-.7-.04-1.42.02-2.13.16-2.26.45-4.2,1.75-5.46,3.66-2.61,3.93-1.54,9.26,2.39,11.89,1.29.86,2.78,1.35,4.31,1.42.71.04,1.43-.02,2.14-.16,2.25-.45,4.19-1.75,5.46-3.66,2.61-3.95,1.54-9.28-2.39-11.89ZM205.27,43.53c-1.29-.86-2.78-1.35-4.32-1.42-.7-.04-1.42.02-2.13.16-2.26.45-4.2,1.75-5.46,3.66-2.61,3.93-1.54,9.26,2.39,11.89,1.29.86,2.78,1.35,4.31,1.42.71.04,1.43-.02,2.14-.16,2.25-.45,4.19-1.75,5.46-3.66,2.61-3.95,1.54-9.28-2.39-11.89Z"/>
      <path class="cls-2" d="M73.15,55.99v51.06c0,3.7,1.96,7.13,5.14,9.01.03.02.06.05.09.06l42.97,24.77-43.97,25.39c-2.41,1.39-5.37,1.39-7.78,0L3.89,128.34c-2.4-1.39-3.89-3.96-3.89-6.73v-5.64l32.46-21.6.86.71c1.79,1.47,3.91,2.48,6.13,2.93,1.13.23,2.27.31,3.41.25,1.24-.06,2.48-.3,3.66-.69s2.33-.95,3.39-1.66c6.39-4.26,8.13-12.94,3.88-19.33-2.06-3.09-5.2-5.2-8.86-5.94-1.15-.23-2.33-.32-3.48-.26-2.48.12-4.9.92-6.99,2.32-5.15,3.42-7.41,9.69-5.63,15.61l.33,1.07L0,108.77v-26.43l32.46-21.6.86.71c1.79,1.47,3.91,2.48,6.13,2.93,1.13.23,2.27.31,3.41.25,1.24-.06,2.48-.3,3.66-.69s2.33-.95,3.39-1.66c6.39-4.26,8.13-12.94,3.88-19.33-2.06-3.09-5.2-5.2-8.86-5.94-1.15-.23-2.33-.32-3.48-.26-2.48.12-4.9.92-6.99,2.32-5.15,3.42-7.41,9.69-5.63,15.61l.33,1.07L0,75.15v-29.43c0-2.78,1.48-5.35,3.89-6.73L69.6,1.04c2.41-1.39,5.37-1.39,7.78,0l43.97,25.39,42.29,24.43c.2.11.4.24.59.37.19.13.38.27.56.4,2.37,1.83,3.86,4.59,4.05,7.59.02.23.02.46.02.7v51.05l-95.71-54.97ZM40.5,92.71c.7.14,1.42.2,2.14.16,1.53-.08,3.02-.57,4.31-1.42,3.92-2.63,4.99-7.96,2.39-11.89-1.26-1.91-3.2-3.2-5.46-3.66-.7-.14-1.42-.2-2.13-.16-1.54.08-3.03.57-4.32,1.42-3.92,2.61-4.99,7.94-2.39,11.89,1.27,1.91,3.21,3.2,5.46,3.66ZM40.5,59.08c.7.14,1.42.2,2.14.16,1.53-.08,3.02-.57,4.31-1.42,3.92-2.63,4.99-7.96,2.39-11.89-1.26-1.91-3.2-3.2-5.46-3.66-.7-.14-1.42-.2-2.13-.16-1.54.08-3.03.57-4.32,1.42-3.92,2.61-4.99,7.94-2.39,11.89,1.27,1.91,3.21,3.2,5.46,3.66Z"/>
      <polygon class="cls-2" points="299.65 23.86 268.77 23.86 268.77 0 356.26 0 356.26 23.86 325.37 23.86 325.37 119.1 299.65 119.1 299.65 23.86"/>
      <path class="cls-2" d="M356.01,59.35c0-34.86,24.95-59.35,59.35-59.35,17.97,0,33.62,6.2,45.87,20.45l-18.75,17.66c-6.35-8.52-16.27-13.79-27.12-13.79-19.83,0-33,14.57-33,35.17s14.1,35.17,33,35.17c15.96,0,26.81-9.45,28.98-22.62h-33.31v-22.62h60.74v9.92c0,35.33-22.16,59.35-56.4,59.35s-59.35-24.48-59.35-59.35Z"/>
      <path class="cls-2" d="M640.67,22.18c-26.65,0-47.41,19.55-47.41,48.45s19.55,47.76,48.79,47.76c18.17,0,32.7-7.61,42.91-21.11l-17.65-14.71c-6.75,8.48-15.05,12.63-24.74,12.63-12.11,0-20.94-6.57-23.53-17.48h65.92c3.81-38.41-19.21-55.54-44.3-55.54ZM619.39,58.86c2.94-8.82,10.73-14.53,21.11-14.53s17.13,5.19,19.21,14.53h-40.32Z"/>
      <path class="cls-2" d="M726.22,55.63h47.02l40.03-53.04c.67-.9.03-2.18-1.09-2.18h-39.92c-.68,0-1.32.32-1.72.86l-20.81,28.02-20.81-28.02c-.41-.54-1.04-.86-1.72-.86h-39.92c-1.12,0-1.76,1.28-1.09,2.18l40.03,53.04Z"/>
      <path class="cls-2" d="M772.89,62.71c-.17-.23-.4-.42-.65-.55h-45.04c-.25.13-.47.32-.65.55l-40.38,53.49c-.67.9-.03,2.18,1.09,2.18h39.92c.68,0,1.32-.32,1.72-.86l20.81-28.02,20.81,28.02c.41.54,1.04.86,1.72.86h39.92c1.12,0,1.76-1.28,1.09-2.18l-40.38-53.49Z"/>
      <path class="cls-2" d="M483.98.42h36.7c37.18,0,62.51,22.92,62.51,58.98s-25.32,58.98-62.51,58.98h-36.7V.42ZM520.68,93.06c21.32,0,34.94-12.02,34.94-33.66s-13.62-33.66-34.94-33.66h-10.1v67.32h10.1Z"/>
    </g>
  </g>
</svg>