<?xml version="1.0" encoding="UTF-8"?>
<svg id="Layer_2" data-name="Layer 2" xmlns="http://www.w3.org/2000/svg" viewBox="0 0 550 379.17">
  <defs>
    <style>
      .cls-1 {
        fill: #0e3e1b;
      }

      .cls-2 {
        fill: #197a56;
      }
    </style>
  </defs>
  <g id="Layer_1-2" data-name="Layer 1">
    <g>
      <path class="cls-1" d="M484.67,123.93c4.03-13.4-1.08-27.62-12.75-35.38-4.74-3.16-10.23-4.98-15.84-5.25-2.63-.14-5.29.07-7.9.58-8.29,1.67-15.41,6.45-20.08,13.46-9.65,14.49-5.7,34.14,8.79,43.8,2.4,1.61,4.99,2.87,7.67,3.76s5.48,1.42,8.29,1.56c2.57.14,5.17-.05,7.72-.57,5.05-1.01,9.85-3.31,13.9-6.64l1.96-1.61,73.57,48.95v59.9l-66.07-43.96.74-2.42c4.03-13.4-1.08-27.62-12.75-35.38-4.74-3.16-10.23-4.98-15.84-5.25-2.63-.14-5.29.07-7.9.58-8.29,1.67-15.41,6.45-20.08,13.46-9.65,14.49-5.7,34.14,8.79,43.8,2.4,1.61,4.99,2.87,7.67,3.76s5.48,1.42,8.29,1.56c2.57.14,5.17-.05,7.72-.57,5.05-1.01,9.85-3.31,13.9-6.64l1.96-1.61,73.57,48.95v12.79c0,6.28-3.35,12.1-8.81,15.26l-148.94,85.98c-5.44,3.14-12.15,3.14-17.61,0l-99.64-57.53-97.37-56.13c-.07-.03-.14-.09-.21-.14l-11.66-6.71V126.27l216.91,125.2v-115.69c0-.53-.02-1.05-.05-1.58-.38-6.4-3.36-12.34-8.19-16.41-.33-.26-.65-.53-1-.79-.41-.34-.82-.63-1.27-.91-.43-.29-.88-.58-1.34-.84l-95.83-55.36.67-.39L374.65,2.36c5.46-3.14,12.17-3.14,17.61,0l148.94,85.99c5.46,3.14,8.81,8.96,8.81,15.26v66.7l-66.07-43.96.74-2.42ZM465.19,174.85c-2.92-1.94-6.3-3.06-9.78-3.23-1.6-.09-3.23.03-4.82.36-5.11,1.03-9.51,3.97-12.38,8.29-5.9,8.91-3.48,20.99,5.41,26.95,2.92,1.94,6.3,3.05,9.77,3.23,1.61.09,3.24-.05,4.84-.36,5.1-1.03,9.49-3.97,12.38-8.29,5.9-8.94,3.48-21.03-5.41-26.95ZM465.19,98.66c-2.92-1.94-6.3-3.06-9.78-3.23-1.6-.09-3.23.03-4.82.36-5.11,1.03-9.51,3.97-12.38,8.29-5.9,8.91-3.48,20.99,5.41,26.95,2.92,1.94,6.3,3.06,9.77,3.23,1.61.09,3.24-.05,4.84-.36,5.1-1.03,9.49-3.97,12.38-8.29,5.9-8.94,3.48-21.03-5.41-26.95Z"/>
      <path class="cls-2" d="M165.77,126.88v115.72c0,8.39,4.45,16.15,11.66,20.41.07.05.14.1.21.14l97.37,56.13-99.64,57.53c-5.46,3.14-12.17,3.14-17.63,0L8.8,290.84c-5.44-3.16-8.8-8.98-8.8-15.26v-12.79l73.57-48.95,1.96,1.61c4.05,3.33,8.86,5.63,13.9,6.64,2.56.51,5.15.7,7.72.57,2.82-.14,5.61-.67,8.29-1.56s5.27-2.15,7.67-3.76c14.49-9.66,18.43-29.32,8.79-43.8-4.67-7-11.79-11.79-20.08-13.46-2.61-.51-5.27-.72-7.9-.58-5.61.27-11.1,2.09-15.84,5.25-11.67,7.76-16.79,21.97-12.75,35.38l.74,2.42L0,246.5v-59.9l73.57-48.95,1.96,1.61c4.05,3.33,8.86,5.63,13.9,6.64,2.56.51,5.15.7,7.72.57,2.82-.14,5.61-.67,8.29-1.56s5.27-2.15,7.67-3.76c14.49-9.66,18.43-29.32,8.79-43.8-4.67-7-11.79-11.79-20.08-13.46-2.61-.51-5.27-.72-7.9-.58-5.61.27-11.1,2.09-15.84,5.25-11.67,7.76-16.79,21.97-12.75,35.38l.74,2.42L0,170.3v-66.7c0-6.3,3.36-12.12,8.8-15.26L157.74,2.36c5.46-3.14,12.17-3.14,17.63,0l99.64,57.54,95.83,55.36c.46.26.91.55,1.34.84.43.29.86.6,1.27.91,5.37,4.14,8.74,10.4,9.18,17.2.03.53.05,1.05.05,1.58v115.69l-216.91-124.58ZM91.78,210.09c1.6.31,3.23.45,4.84.36,3.47-.17,6.85-1.29,9.77-3.23,8.89-5.96,11.31-18.04,5.41-26.95-2.87-4.33-7.26-7.26-12.38-8.29-1.6-.33-3.23-.45-4.82-.36-3.48.17-6.87,1.29-9.78,3.23-8.89,5.92-11.31,18.01-5.41,26.95,2.88,4.32,7.28,7.26,12.38,8.29ZM91.78,133.9c1.6.31,3.23.45,4.84.36,3.47-.17,6.85-1.29,9.77-3.23,8.89-5.96,11.31-18.04,5.41-26.95-2.87-4.33-7.26-7.26-12.38-8.29-1.6-.33-3.23-.45-4.82-.36-3.48.17-6.87,1.29-9.78,3.23-8.89,5.92-11.31,18.01-5.41,26.95,2.88,4.32,7.28,7.26,12.38,8.29Z"/>
    </g>
  </g>
</svg>