<?xml version="1.0" encoding="utf-8"?>
<!-- Generator: Adobe Illustrator 16.0.0, SVG Export Plug-In . SVG Version: 6.00 Build 0)  -->
<!DOCTYPE svg PUBLIC "-//W3C//DTD SVG 1.0//EN" "http://www.w3.org/TR/2001/REC-SVG-20010904/DTD/svg10.dtd">
<svg version="1.0" id="Layer_1" xmlns="http://www.w3.org/2000/svg" xmlns:xlink="http://www.w3.org/1999/xlink" x="0px" y="0px"
	 width="100px" height="100px" viewBox="0 0 100 100" enable-background="new 0 0 100 100" xml:space="preserve">
<path d="M76.667,26.869l-10-10l3.535-3.535l6.465,6.465L86.465,10L90,13.535L76.667,26.869z"/>
<path d="M76.667,33.333h-5V40c0,5.514-4.486,10-10,10H38.333c-5.515,0-10-4.486-10-10v-6.667h-5c-3.669,0-6.667,3.001-6.667,6.667
	v35.003L83.333,75V40C83.333,36.334,80.332,33.333,76.667,33.333z M63.333,70H36.667C33,70,30,66.999,30,63.333
	c0-3.665,3-6.666,6.667-6.666h26.667c3.666,0,6.667,3.001,6.667,6.666C70,66.999,66.999,70,63.333,70z"/>
<polygon points="90,86.667 83.333,90 16.667,90 10,86.667 10,80 36.667,80 40,83.333 60,83.333 63.333,80 90,80 "/>
<path d="M61.667,25H45v-5c0-2.76,2.24-5,5-5c2.761,0,5,2.24,5,5h5c0-5.524-4.479-10-10-10c-5.524,0-10,4.476-10,10v5h-1.667
	c-2.751,0-5,2.25-5,5v10c0,2.75,2.249,5,5,5h23.333c2.75,0,5-2.25,5-5V30C66.667,27.25,64.417,25,61.667,25z M53.333,38.333h-6.667
	v-6.667h6.667V38.333z"/>
<circle cx="37.5" cy="63.333" r="2.5"/>
<circle cx="45.833" cy="63.333" r="2.5"/>
<circle cx="54.167" cy="63.333" r="2.5"/>
<circle cx="62.5" cy="63.333" r="2.5"/>
</svg>
