<?xml version="1.0" encoding="iso-8859-1"?>
<!-- Generator: Adobe Illustrator 16.0.0, SVG Export Plug-In . SVG Version: 6.00 Build 0)  -->
<!DOCTYPE svg PUBLIC "-//W3C//DTD SVG 1.1//EN" "http://www.w3.org/Graphics/SVG/1.1/DTD/svg11.dtd">
<svg version="1.1" xmlns="http://www.w3.org/2000/svg" xmlns:xlink="http://www.w3.org/1999/xlink" x="0px" y="0px" width="520px"
	 height="520px" viewBox="0 0 520 520" style="enable-background:new 0 0 520 520;" xml:space="preserve">
<g id="_x35_51_x2C__Catalogue_x2C__Items_x2C__Magazine_x2C__Online">
	<g>
		<path style="fill:#57606F;" d="M482.5,115.67v258.66c0,14.18-11.49,25.67-25.67,25.67c-23.252,0-365.761,0-388.67,0
			c-14.17,0-25.66-11.49-25.66-25.67V115.67C42.5,101.49,53.99,90,68.16,90c0.14,0,388.551,0,388.67,0
			C471.01,90,482.5,101.49,482.5,115.67z"/>
		<path style="fill:#FFFFFF;" d="M452.5,120v190h-380V120C72.609,120,452.395,120,452.5,120z"/>
		<path style="fill:#A0B5C5;" d="M302.25,200c-21.96,0-39.75,17.8-39.75,39.75V85c0-22.74,18.43-41.17,41.16-41.17h88.84
			c0,17.024,0,137.994,0,156.17H302.25z"/>
		<rect x="302.5" y="80" style="fill:#4A78FF;" width="50" height="50"/>
		<path style="fill:#57606F;" d="M297.5,464c-2.762,0-5-2.238-5-5v-35h-60v35c0,2.762-2.239,5-5,5s-5-2.238-5-5v-40
			c0-2.762,2.239-5,5-5h70c2.762,0,5,2.238,5,5v40C302.5,461.762,300.262,464,297.5,464z"/>
		<path style="fill:#414A56;" d="M340,459c6.9,0,12.5,5.6,12.5,12.5c0,3.45-1.4,6.58-3.66,8.84c-2.27,2.26-5.39,3.66-8.84,3.66H185
			c-6.91,0-12.5-5.6-12.5-12.5c0-3.45,1.4-6.58,3.66-8.84c2.26-2.26,5.39-3.66,8.84-3.66h42.5h70H340z"/>
		<path style="fill:#414A56;" d="M337.5,399v5.5c0,10.77-8.73,19.5-19.5,19.5h-20.5h-70H207c-10.77,0-19.5-8.73-19.5-19.5V399H337.5
			z"/>
		<path style="fill:#4D5DB1;" d="M462.5,35c8.28,0,15,6.72,15,15s-6.72,15-15,15c-8.289,0-15-6.72-15-15S454.211,35,462.5,35z"/>
		<path style="fill:#4D5DB1;" d="M57.5,30c11.04,0,20,8.95,20,20s-8.96,20-20,20c-11.05,0-20-8.95-20-20S46.45,30,57.5,30z"/>
		<circle style="fill:#4D5DB1;" cx="107.5" cy="460" r="30"/>
		<rect x="72.5" y="310" style="fill:#A0B5C5;" width="380" height="30"/>
		<path style="fill:#94D4FF;" d="M262.5,239.75c0-21.95,17.79-39.75,39.75-39.75h90.25v40h-130V239.75z"/>
		<path style="fill:#BCE4FF;" d="M262.5,239.75V240h-130v-40h90.25C244.7,200,262.5,217.8,262.5,239.75z"/>
		<polygon style="fill:#2663F0;" points="352.5,130 302.5,130 327.5,105 		"/>
		<polygon style="fill:#2663F0;" points="352.5,80 327.5,105 302.5,80 		"/>
		<polygon style="fill:#4A78FF;" points="352.5,80 352.5,130 327.5,105 		"/>
		<polygon style="fill:#4A78FF;" points="327.5,105 302.5,130 302.5,80 		"/>
		<path style="fill:#D0DCE7;" d="M262.5,85v154.75c0-21.95-17.8-39.75-39.75-39.75H132.5v-80V90V43.83h88.83
			C244.07,43.83,262.5,62.26,262.5,85z"/>
		<circle style="fill:#94D4FF;" cx="455" cy="432.5" r="7.5"/>
		<circle style="fill:#94D4FF;" cx="420" cy="37.5" r="7.5"/>
		<circle style="fill:#94D4FF;" cx="390" cy="452.5" r="7.5"/>
		<path style="fill:#414A56;" d="M269.57,362.93c1.811,1.811,2.93,4.311,2.93,7.07s-1.119,5.26-2.93,7.07
			c-1.811,1.81-4.311,2.93-7.07,2.93c-5.53,0-10-4.48-10-10c0-2.76,1.12-5.26,2.93-7.07c1.8-1.81,4.3-2.93,7.07-2.93
			C265.26,360,267.76,361.12,269.57,362.93z"/>
		<circle style="fill:#94D4FF;" cx="160" cy="422.5" r="7.5"/>
		<circle style="fill:#94D4FF;" cx="105" cy="62.5" r="7.5"/>
		<circle style="fill:#94D4FF;" cx="50" cy="437.5" r="7.5"/>
		<g>
			<path style="fill:#A0B5C5;" d="M237.5,170h-80c-2.761,0-5,2.239-5,5s2.239,5,5,5h80c2.761,0,5-2.239,5-5S240.261,170,237.5,170z"
				/>
			<path style="fill:#A0B5C5;" d="M237.5,150h-80c-2.761,0-5,2.239-5,5s2.239,5,5,5h80c2.761,0,5-2.239,5-5S240.261,150,237.5,150z"
				/>
			<path style="fill:#A0B5C5;" d="M237.5,130h-80c-2.761,0-5,2.239-5,5s2.239,5,5,5h80c2.761,0,5-2.239,5-5S240.261,130,237.5,130z"
				/>
			<path style="fill:#A0B5C5;" d="M157.5,120h80c2.761,0,5-2.239,5-5s-2.239-5-5-5h-80c-2.761,0-5,2.239-5,5S154.739,120,157.5,120z
				"/>
			<path style="fill:#A0B5C5;" d="M157.5,100h40c2.761,0,5-2.239,5-5s-2.239-5-5-5h-40c-2.761,0-5,2.239-5,5S154.739,100,157.5,100z
				"/>
		</g>
		<path style="fill:#8C9FAA;" d="M367.5,180h-80c-2.762,0-5-2.239-5-5s2.238-5,5-5h80c2.762,0,5,2.239,5,5S370.262,180,367.5,180z"
			/>
		<path style="fill:#8C9FAA;" d="M367.5,160h-80c-2.762,0-5-2.239-5-5s2.238-5,5-5h80c2.762,0,5,2.239,5,5S370.262,160,367.5,160z"
			/>
	</g>
</g>
<g id="Layer_1">
</g>
</svg>
